<svg width="129" height="57" viewBox="0 0 129 57" fill="none" xmlns="http://www.w3.org/2000/svg">
<path fill-rule="evenodd" clip-rule="evenodd" d="M128.559 49.6288L126.716 49.6292V40.6388H126.823V40.3583H126.992V40.1852C127.065 40.1852 127.124 40.1182 127.124 40.0364C127.124 39.9547 127.065 39.888 126.992 39.888H124.556V30.8435H124.589V31.1513H124.94V38.3141H124.567V38.8036H126.902C127.108 38.8036 127.276 38.6938 127.276 38.559C127.276 38.4243 127.108 38.3141 126.902 38.3141H126.776V31.1513H127.153V30.8435H127.31V30.6705C127.391 30.6705 127.457 30.6034 127.457 30.5217C127.457 30.4399 127.391 30.3729 127.31 30.3729H124.556V25.4118C124.575 25.4178 124.594 25.4235 124.611 25.43L124.608 25.235C124.591 25.2297 124.574 25.2244 124.556 25.2194V24.6451C124.89 24.4876 124.883 24.1207 124.592 23.9564L124.776 23.9552L125.065 23.9556V29.1177H127.306V23.9586H127.312L127.414 23.7655H127.76L127.997 23.4997L112.426 23.4816L111.322 23.8242L105.427 23.8534C105.553 23.9598 105.616 24.1105 105.616 24.3051H111.337L112.207 24.0389L114.998 24.0203C114.767 24.1979 114.756 24.5391 115.039 24.7091V25.294C115.025 25.2986 115.012 25.3031 114.998 25.308V25.4917C115.011 25.4867 115.025 25.4814 115.039 25.4769V30.4899H112.463C112.387 30.4899 112.324 30.5626 112.324 30.6511C112.324 30.7397 112.387 30.8124 112.463 30.8124V30.9999H112.642V31.3338H115.039V49.6296L105.211 49.6303V49.5648H107.323V42.1635H105.211V40.6286H111.901V40.4427H105.211V40.3117H111.246V40.0599H111.748V39.6555H105.211V31.3304H111.361V31.1036H105.211V31.0377H111.882V30.6879H105.211V29.9552H111.885V29.6054H105.211V28.9803H107.447V29.3684H107.724V28.9803H107.881V28.7686H105.211V25.7987H107.619V25.3724H105.263L105.264 25.4159C105.247 25.4091 105.23 25.4031 105.211 25.397V25.3455C105.23 25.3512 105.247 25.3573 105.264 25.3637L105.263 25.2793H107.919V25.0718H105.211V24.5765C105.544 24.4115 105.522 24.0181 105.208 23.8655C104.28 23.8655 103.817 23.8655 103.817 23.8655C103.572 24.037 103.551 24.3993 103.831 24.5765V25.1649C103.817 25.1695 103.805 25.174 103.792 25.1789V25.3637C103.804 25.3584 103.817 25.3535 103.831 25.3485V49.6303H101.986V24.3797C102.005 24.3857 102.023 24.3921 102.041 24.3986L102.038 24.1953C102.021 24.1896 102.003 24.1843 101.986 24.179V23.5804C102.334 23.4089 102.312 22.9996 101.982 22.8409C101.009 22.8409 100.522 22.8409 100.522 22.8409C100.266 23.0196 100.244 23.3964 100.537 23.5804V24.1922C100.523 24.1968 100.51 24.2017 100.496 24.2066V24.3986C100.509 24.3933 100.523 24.388 100.537 24.3831V49.6307H97.1268V39.8312H98.7912V39.6586H98.7923C98.8741 39.6586 98.9411 39.5916 98.9411 39.5098C98.9411 39.428 98.8741 39.361 98.7923 39.361H97.1268V38.3005H98.826V38.1274H98.8275C98.9093 38.1274 98.976 38.0604 98.976 37.9786C98.976 37.8968 98.9093 37.8302 98.8275 37.8302H97.1268V30.1158H98.6878V29.9427C98.7696 29.9427 98.8362 29.8757 98.8362 29.7939C98.8362 29.7122 98.7696 29.6455 98.6878 29.6455H97.1268V29.0314H98.617C98.7514 29.0314 98.8616 28.9212 98.8616 28.7864C98.8616 28.6516 98.7514 28.5415 98.617 28.5415H97.1268V24.3797C97.1461 24.3857 97.1642 24.3921 97.1817 24.3986L97.179 24.1953C97.162 24.1896 97.1442 24.1843 97.1268 24.179V23.5804C97.4694 23.4115 97.4531 23.0125 97.1381 22.8485C97.2722 22.9182 97.352 23.0299 97.3732 23.1484H98.8393C98.9756 23.1484 99.0869 23.0382 99.0869 22.9034C99.0869 22.7686 98.9756 22.6584 98.8393 22.6584H97.265C97.5201 21.802 98.0726 21.3056 98.6488 21.2045V21.5672H99.1134V21.2087C99.6503 21.3158 100.143 21.7815 100.365 22.6357H100.51V22.8379H101.969V22.008H102.328V22.3578C103.108 22.4703 103.527 23.0087 103.587 23.864L105.302 23.8617V23.7455L111.316 23.7273L112.422 23.374L127.314 23.3774V22.5759H112.431L111.302 23.0352L105.302 23.0496V22.7194L111.371 22.705L112.136 22.3412H127.626V22.2317H112.136H112.066V22.2666L111.363 22.6141H105.302V22.4881L111.355 22.4937L112.066 22.0564H127.856L128.264 21.794H127.491L127.229 21.5608H112.478L111.807 21.9981H105.302V21.0368H105.423V20.9406H101.969V20.8532H105.423V20.5556H101.969V20.4594H105.422L105.681 20.2406H101.969V19.7881H100.51V19.9244L97.1162 19.9138V19.7881H95.6566V19.9244L92.2569 19.9138V19.7881H90.7973V19.9244L87.3977 19.9138V19.7881H85.9385V19.9244L82.5718 19.9142V19.7881H81.1122V19.9244L77.7137 19.9138V19.7998H77.0303V19.8135C76.8175 19.6261 76.607 19.4708 76.3991 19.3481V19.2243C76.1734 19.1001 75.8895 19.0051 75.5464 18.94V19.1126C74.9804 18.9089 74.1406 18.7401 73.0267 18.6057V18.4917L71.6383 18.3387L71.6379 18.4451C70.7273 18.2891 69.4983 18.2509 68.0569 18.2089V18.1199L66.4171 18.0843L66.4175 18.2482H62.7615L62.7623 18.0843L61.1225 18.1199V18.2089C59.681 18.2509 58.4517 18.2891 57.5414 18.4451L57.5411 18.3387L56.1523 18.4535V18.6057C55.0384 18.7401 54.1986 18.9089 53.6326 19.1126V18.94C53.2899 19.0051 53.0056 19.1001 52.7799 19.2243V19.3481C52.5758 19.4685 52.3695 19.62 52.1608 19.8029V19.5931H51.4771V19.7071L48.0789 19.7173V19.581H46.6193V19.7071L43.2526 19.7173V19.581H41.793V19.7071L38.3938 19.7173V19.581H36.9342V19.7071L33.5345 19.7173V19.581H32.0749V19.7071L28.681 19.7173V19.581H27.2218V20.091H23.2761L23.5472 20.3095H27.2218V20.406H23.5469V20.7032H27.2218V20.7907H23.5469V20.8869H23.6748V21.813H17.1747L16.5041 21.3757H1.753L1.49061 21.6089H0.717847L1.126 21.8713H16.9161L17.6267 22.3086L23.6748 22.3033V22.4294H17.6184L16.9161 22.0814V22.047H16.846H1.35582V22.1564H16.846L17.6112 22.5202L23.6748 22.5346V22.8644L17.6801 22.85L16.5507 22.3911H1.66819V23.1927L16.5598 23.1893L17.6657 23.5425L23.6748 23.5607V23.7121H25.1257H25.1401V23.711L25.4578 23.6902C25.5172 22.8349 25.9371 22.351 26.7171 22.2382V21.8883H27.2218V21.0444H25.1401V20.8869H27.2218V22.6312H27.2309C26.9086 22.7944 26.8893 23.2037 27.2346 23.3759V23.9817C27.2172 23.9874 27.1998 23.9927 27.1824 23.9988L27.1797 24.2044C27.1972 24.1975 27.2153 24.1915 27.2346 24.1854V49.6394L25.217 49.639V25.2073C25.2314 25.2122 25.2446 25.2172 25.2575 25.2225V25.0366C25.2442 25.032 25.231 25.0271 25.217 25.0229V24.4311C25.5104 24.2528 25.4877 23.8886 25.2317 23.7156C25.2317 23.7156 24.7452 23.7156 23.7721 23.7156C23.4424 23.8689 23.42 24.2649 23.7684 24.4311V25.0101L23.7676 25.0104V24.929H21.0597V25.1369H23.7146L23.7135 25.2225C23.7305 25.216 23.749 25.21 23.7684 25.2043V39.9077H17.242V40.3124H17.7449V40.5639H23.7684V40.6949H17.0887V40.8808H23.7684V49.639L13.7599 49.6387V40.646H16.0161V40.3382H16.1857V40.1652C16.258 40.1652 16.3171 40.0981 16.3171 40.0164C16.3171 39.9346 16.258 39.8679 16.1857 39.8679H13.7599V38.7836H16.0623C16.2679 38.7836 16.4363 38.6734 16.4363 38.539C16.4363 38.4042 16.2679 38.294 16.0623 38.294H13.7599V31.1312H16.3129V30.823H16.5034V30.6504C16.5844 30.6504 16.6506 30.5834 16.6506 30.5016C16.6506 30.4198 16.5844 30.3528 16.5034 30.3528H13.7599V29.6554H16.2728C16.4946 29.6554 16.676 29.5569 16.676 29.4365C16.676 29.3161 16.4946 29.2177 16.2728 29.2177H13.7599V25.3209C13.7742 25.3258 13.7879 25.3308 13.8004 25.3361V25.1509C13.7871 25.1464 13.7739 25.1418 13.7599 25.1373V24.5481C14.0533 24.3709 14.0306 24.0082 13.7746 23.8363C13.7746 23.8363 13.2881 23.8363 12.315 23.8363C11.9856 23.9889 11.9629 24.3831 12.3113 24.5481V25.1244C12.2935 25.1297 12.276 25.135 12.259 25.1403L12.2564 25.3361C12.2734 25.3296 12.2919 25.3236 12.3113 25.3179V49.6383L5.72437 49.6379V25.2592C5.73838 25.2641 5.75201 25.269 5.76488 25.2743V25.0888C5.75163 25.0839 5.738 25.0793 5.72437 25.0748V24.4845C6.01212 24.31 5.99584 23.9567 5.75352 23.7807L16.7745 23.8541L17.6445 24.1203H23.3659C23.3659 23.9253 23.4291 23.7746 23.5552 23.6682L17.6593 23.6391L16.556 23.2964L0.984775 23.3146L1.22141 23.5808H1.56747L1.6697 23.7739V28.9163H3.91115V23.7708L4.20609 23.7701L4.27917 23.7708C3.94976 23.9242 3.92743 24.3187 4.27576 24.4845V25.0623C4.25796 25.0672 4.24055 25.0725 4.22351 25.0782L4.22086 25.2743C4.2379 25.2679 4.25645 25.2618 4.27576 25.2562V38.1539H3.82482V30.9912H4.26856V30.683V30.5103V30.2127H1.51447C1.43344 30.2127 1.36718 30.2797 1.36718 30.3615C1.36718 30.4433 1.43344 30.5103 1.51447 30.5103V30.683H1.70491V30.9912H1.98812V38.1539H1.95556C1.74959 38.1539 1.58148 38.2641 1.58148 38.3989C1.58148 38.5333 1.74959 38.6435 1.95556 38.6435H4.27576V39.7279H1.83213C1.75981 39.7279 1.70075 39.7945 1.70075 39.8763C1.70075 39.9581 1.75981 40.0251 1.83213 40.0251V40.1981H2.00175V40.4832H2.12329V49.6379H0.559204V54.6403H37.7388V56.3713H38.978L39.6046 56.2399L40.1892 55.8969H88.9663L89.507 56.2142L90.134 56.3456H91.3728V54.6342L128.559 54.6312V49.6288ZM69.0527 1.47946C69.635 2.71831 69.9262 3.33773 69.9262 3.33773C67.5321 6.0392 65.2824 1.77781 64.6035 3.45132C64.6368 4.73788 64.6773 6.38867 64.711 8.03605L64.7334 8.69713L64.9757 8.72439L65.0185 8.05044C65.0522 8.05309 65.0859 8.05612 65.1196 8.05915L65.1143 8.74597L65.5186 8.82813L65.644 8.13942C65.6788 8.14661 65.7136 8.15418 65.7488 8.16214L65.6239 9.77317L66.5602 9.97308V10.2904C70.4653 11.2468 73.5556 12.9956 75.8308 15.5377C69.3776 13.9706 60.1244 13.9452 53.6598 15.4722C56.4203 12.6132 59.452 10.9003 62.7558 10.3339V9.98406L63.641 9.82012L63.4941 8.17312C63.5309 8.16441 63.5672 8.15608 63.6039 8.14813L63.7285 8.80352L64.1109 8.74748L64.1011 8.06597C64.142 8.06142 64.1825 8.05726 64.2234 8.05347L64.273 8.72704L64.5263 8.69826L64.5471 1.07471C65.1203 -0.779403 67.8964 3.6039 69.0527 1.47946ZM86.063 54.1927H43.0928L42.8464 54.337H86.3092L86.063 54.1927ZM86.6261 54.5233H42.5295L42.2269 54.7008H86.9286L86.6261 54.5233ZM87.2455 54.8867H41.91L41.6639 55.0314H87.4916L87.2455 54.8867ZM87.8085 55.2173H41.347L41.0695 55.3805H88.086L87.8085 55.2173ZM88.4033 55.5664H40.7526L40.5061 55.7106H88.6494L88.4033 55.5664ZM48.4159 51.9547H80.7377L80.5079 51.8139L48.6389 51.818L48.4159 51.9547ZM81.0414 52.1406H48.1122L47.8764 52.2852H81.2773L81.0414 52.1406ZM81.5813 52.4711H47.5727L47.2827 52.6487H81.8709L81.5813 52.4711ZM82.1746 52.835H46.979L46.7431 52.9792H82.4105L82.1746 52.835ZM82.7145 53.1655H46.4395L46.1733 53.3283H82.9803L82.7145 53.1655ZM83.2843 53.5142H45.8697L45.6338 53.6589H83.5202L83.2843 53.5142ZM50.4302 51.4822L50.6047 51.3709H78.5474L78.7219 51.4822H50.4302ZM50.8966 51.185L51.1753 51.0074H77.9768L78.2555 51.185H50.8966ZM51.4668 50.8211L51.7455 50.6435H77.407L77.6853 50.8211H51.4668ZM52.037 50.4576L52.3153 50.2801H76.8368L77.1151 50.4576H52.037ZM52.6072 50.0941L52.7844 49.9809H76.3677L76.5449 50.0941H52.6072ZM55.0993 49.7004V48.5047L55.1872 48.449H54.4208V23.5168C54.4371 23.5217 54.4526 23.527 54.467 23.5327V23.3377C54.4519 23.3328 54.4364 23.3278 54.4208 23.3233V23.1696H56.0856L56.0853 23.2101C56.1046 23.2033 56.1258 23.1968 56.1477 23.1908V49.0957H55.9429V49.7004H55.0993ZM58.02 49.7004V49.0957H57.7978V38.55H61.0562V49.0957H60.9774H60.8351V49.7004H58.02ZM62.9122 49.7004V49.2816H66.2891V49.7004H62.9122ZM68.3663 49.7004V49.0957H68.2148H68.1247V41.6732H70.7413V41.5638H68.1247V41.5411H71.2059V41.4317H68.1247V41.32H71.2059V41.1011H68.1247V38.55H71.3396V49.0957H71.1484V49.7004H68.3663ZM73.2255 49.7004V49.0957H72.9896V23.1881C73.0116 23.1942 73.0324 23.2006 73.0521 23.2074L73.049 22.9992C73.0294 22.9931 73.0097 22.9875 72.9896 22.9822V22.9791C73.0097 22.9848 73.0294 22.9901 73.049 22.9962L73.0517 23.1696H74.76V23.3347C74.7445 23.3392 74.729 23.3441 74.7138 23.349V23.5452C74.7282 23.5395 74.7438 23.5342 74.76 23.5293V28.8042H73.4807C73.3603 28.8042 73.2615 28.9144 73.2615 29.0492C73.2615 29.1836 73.3603 29.2938 73.4807 29.2938H74.76V29.9079H73.4174C73.344 29.9079 73.2842 29.9749 73.2842 30.0567C73.2842 30.1385 73.344 30.2055 73.4174 30.2055V30.3785H74.76V37.918H73.4216C73.3485 37.918 73.2887 37.9851 73.2887 38.0668C73.2887 38.1486 73.3485 38.2153 73.4216 38.2153V38.3883H74.76V48.4233H73.9248L74.0123 48.4793V49.7004H73.2255ZM77.0772 49.349H77.1079L78.9684 50.4565H80.7029L83.9829 52.2784H85.586L89.5365 54.5233L89.5509 54.7713L85.6007 52.4533L83.9829 52.4681L80.7029 50.6314H78.9684L77.0772 49.349ZM77.6944 49.349H77.7262V28.1182H81.1406V28.5415H77.7273V29.0314H81.1406V29.6455H77.7273V29.9427V30.1158H81.1406V32.6207C80.0452 32.7446 79.1869 33.6805 79.1869 34.8077V36.9794H81.1406V37.8302H77.7273V38.1274V38.3005H81.1406V39.4613H79.0858V39.6536H81.1406V39.891H79.0858V40.0834H81.1406V40.5945H79.1869V49.282H81.1406V49.6315L78.1805 49.6319L77.6944 49.349ZM50.9606 49.6406H48.0801V49.2332H49.983V40.5457H48.0801V40.058H50.0958V39.8657H48.0801V39.6283H50.0958V39.4359H48.0801V38.2751H51.4547V49.3532L50.9606 49.6406ZM51.4547 49.7015V49.7038H51.5494L50.1432 50.6572H48.4087L45.1291 52.4939L43.5108 52.4791L39.5607 54.797L39.5755 54.549L43.5256 52.3042H45.1291L48.4087 50.4822H50.1432L51.4547 49.7015ZM69.3147 44.9214C69.8073 44.9214 70.2101 45.3246 70.2101 45.8172V49.3271H68.4189V45.8172C68.4189 45.3246 68.8221 44.9214 69.3147 44.9214ZM59.9033 44.8264C60.3959 44.8264 60.7987 45.2292 60.7987 45.7218V49.2316H59.0075V45.7218C59.0075 45.2292 59.4107 44.8264 59.9033 44.8264ZM62.8376 49.0957H62.7059V41.6732H66.4644V41.5638H62.7059V41.5411H66.4644V41.4317H62.7059V41.32H66.4644V41.1011H62.7059V38.55H66.475V49.0957H66.3872V44.7628H62.8376V49.0957ZM125.002 49.6292H124.556V40.6388H125.002V49.6292ZM4.27576 40.4832V49.6379H3.83731V40.4832H4.27576ZM51.4547 37.8045H48.0801V36.931H49.983V34.7588C49.983 33.6495 49.1508 32.7249 48.0801 32.5783V30.0904H51.4547V37.8045ZM51.4547 29.6202H48.0801V29.006H51.4547V29.6202ZM51.4547 28.5161H48.0801V27.9584H51.4547V28.5161ZM51.4547 27.6608H48.0801V24.6689H51.4547V27.6608ZM51.4002 24.2683L51.3998 24.2687L51.4006 24.1877L51.4025 24.0673C51.4195 24.0616 51.4369 24.0563 51.4547 24.051V24.0783C51.4369 24.0836 51.4195 24.0893 51.4025 24.0949L51.4002 24.2683ZM51.4547 23.8905H48.0801V23.3759C48.1834 23.31 48.2478 23.2199 48.2762 23.123H51.2026C51.2101 23.2586 51.2919 23.3918 51.4547 23.4729V23.8905ZM51.2022 23.101C51.1999 22.9538 51.2881 22.8061 51.4585 22.7251C51.2908 22.8065 51.2029 22.9534 51.2022 23.101ZM51.4896 22.7251V22.7156H52.1608V21.7861C52.2521 20.42 52.5819 20.0069 52.7799 21.6752V21.9534H52.7754C52.3998 22.114 52.374 22.5289 52.7708 22.7031V22.7251H51.4896ZM52.7708 23.2968V23.3097C52.7507 23.3153 52.7311 23.3206 52.7114 23.3267L52.7083 23.5198L52.7114 23.3135C52.7311 23.3078 52.7507 23.3021 52.7708 23.2968ZM28.681 22.6274V22.4286H28.826C29.0475 21.5748 29.5408 21.1087 30.0777 21.002V21.3601H30.5423V20.9974C31.1307 21.1008 31.6937 21.6157 31.9417 22.5055H32.0749V22.6312H32.0901C31.9273 22.7137 31.8417 22.8587 31.8413 23.0045C31.8391 22.8602 31.9235 22.716 32.0855 22.6331H30.3428C30.2064 22.6331 30.0948 22.7432 30.0948 22.878C30.0948 23.0128 30.2064 23.123 30.3428 23.123H31.8606C31.894 23.223 31.9704 23.3146 32.0939 23.3759V23.9817C32.0761 23.9874 32.0587 23.9927 32.0416 23.9988L32.039 24.2044C32.056 24.1975 32.0746 24.1915 32.0939 24.1854V28.5161H30.565C30.4302 28.5161 30.32 28.6263 30.32 28.7611C30.32 28.8959 30.4302 29.006 30.565 29.006H32.0939V29.6202H30.4942C30.4124 29.6202 30.3454 29.6868 30.3454 29.7686C30.3454 29.8504 30.4124 29.9174 30.4942 29.9174V30.0904H32.0939V37.8045H30.3545C30.2727 37.8045 30.2057 37.8715 30.2057 37.9533C30.2057 38.035 30.2727 38.1021 30.3545 38.1021H30.356V38.2751H32.0939V49.6394H28.6833V24.1885C28.6976 24.1934 28.7113 24.1987 28.7238 24.2044V24.0097C28.7105 24.0048 28.6973 23.9999 28.6833 23.9954V23.3759C28.9767 23.1893 28.954 22.808 28.698 22.6274H28.681ZM33.5345 22.6274V22.4286H33.6795C33.901 21.5748 34.3944 21.1087 34.9309 21.002V21.3601H35.3955V20.9974C35.9838 21.1008 36.5472 21.6157 36.7952 22.5055H36.9342V22.6312H36.9376C36.7748 22.7137 36.6896 22.8587 36.6892 23.0045C36.6869 22.8602 36.771 22.716 36.9334 22.6331H33.5656C33.6898 22.7232 33.7564 22.8606 33.756 22.9981C33.7545 22.8572 33.6848 22.7175 33.5573 22.6274H33.5345ZM33.7386 23.123H36.7085C36.7415 23.223 36.8183 23.3146 36.9418 23.3759V23.8905H34.0975C34.0158 23.8905 33.9487 23.9575 33.9487 24.0393C33.9487 24.1211 34.0158 24.1877 34.0975 24.1877V24.3607H34.2895V24.6689H36.9418V27.6608H34.1771C34.1252 27.6608 34.0828 27.7032 34.0828 27.7551C34.0828 27.8066 34.1252 27.849 34.1771 27.849H34.2316V27.9584H36.9418V28.5161H33.5425V24.1885C33.5565 24.1934 33.5701 24.1987 33.583 24.2044V24.0097C33.5697 24.0048 33.5561 23.9999 33.5425 23.9954V23.3759C33.6462 23.31 33.7102 23.2199 33.7386 23.123ZM33.5425 29.006H36.9418V29.6202H33.5425V29.006ZM33.5425 30.0904H36.9418V32.9532C36.3318 33.3454 35.9255 34.0304 35.9255 34.8058V36.9775H36.9418V37.8045H33.5425V30.0904ZM33.5425 38.2751H36.9418V39.4359H35.9411V39.6283H36.9418V39.8657H35.9411V40.058H36.9418V40.5922H35.9255V49.2801H36.9418V49.6398H33.5425V38.2751ZM38.3938 22.6274V22.4286H38.5388C38.7603 21.5748 39.2532 21.1087 39.7901 21.002V21.3601H40.2547V20.9974C40.8431 21.1008 41.4065 21.6157 41.6545 22.5055H41.793V22.6312H41.7968C41.634 22.7137 41.5484 22.8587 41.5484 23.0045C41.5462 22.8602 41.6302 22.716 41.7927 22.6331H38.4131C38.5373 22.7232 38.6043 22.8606 38.6035 22.9981C38.602 22.8572 38.5323 22.7175 38.4048 22.6274H38.3938ZM38.5865 23.123H41.5674C41.6007 23.223 41.6776 23.3146 41.8006 23.3759V23.8905H38.3904V23.3759C38.4937 23.31 38.5581 23.2199 38.5865 23.123ZM38.3904 23.9723C38.404 23.9768 38.4176 23.9813 38.4309 23.9863V24.0097C38.4176 24.0048 38.404 23.9999 38.3904 23.9954V23.9723ZM38.3904 24.6689H41.8006V27.6608H38.3904V24.6689ZM38.3904 27.9584H41.8006V28.5161H38.3904V27.9584ZM38.3904 29.006H41.8006V29.6202H38.3904V29.006ZM38.3904 30.0904H41.8006V37.8045H38.3904V36.9775H40.3278V34.8058C40.3278 33.6843 39.4778 32.7517 38.3904 32.6207V30.0904ZM38.3904 38.2751H41.8006V49.6402L38.3904 49.6398V49.2801H40.3278V40.5922H38.3904V40.058H40.3925V39.8657H38.3904V39.6283H40.3925V39.4359H38.3904V38.2751ZM36.8869 24.1775L36.8895 23.9988C36.9065 23.9927 36.924 23.9874 36.9418 23.9817V23.959C36.924 23.9643 36.9065 23.9696 36.8895 23.9753L36.8865 24.1775H36.8869ZM43.2526 22.6274V22.4286H43.3976C43.6191 21.5748 44.1125 21.1087 44.649 21.002V21.3601H45.1139V20.9974C45.7023 21.1008 46.2653 21.6157 46.5133 22.5055H46.6193V22.6312H46.6273C46.4645 22.7137 46.3793 22.8587 46.3789 23.0045C46.3766 22.8602 46.4607 22.716 46.6231 22.6331H43.2723C43.3965 22.7232 43.4631 22.8606 43.4628 22.9981C43.4612 22.8572 43.3916 22.7175 43.264 22.6274H43.2526ZM43.4453 23.123H46.3978C46.4312 23.223 46.508 23.3146 46.6315 23.3759V23.8905H43.2492V23.3759C43.353 23.31 43.4169 23.2199 43.4453 23.123ZM43.2492 23.9723C43.2632 23.9768 43.2765 23.9813 43.2897 23.9863V24.0097C43.2765 24.0048 43.2632 23.9999 43.2492 23.9954V23.9723ZM43.2492 24.6689H46.6315V27.6608H43.2492V24.6689ZM43.2492 27.9584H46.6315V28.5161H43.2492V27.9584ZM43.2492 29.006H46.6315V29.6202H43.2492V29.006ZM43.2492 30.0904H46.6315V32.885C46.0026 33.2735 45.5812 33.9694 45.5812 34.7588V36.931H46.6315V37.8045H43.2492V30.0904ZM43.2492 38.2751H46.6315V39.4359H45.6444V39.6283H46.6315V39.8657H45.6444V40.058H46.6315V40.5457H45.5812V49.2332H46.6315V49.6406L43.2492 49.6402V38.2751ZM41.7461 24.1775L41.7484 23.9988C41.7654 23.9927 41.7832 23.9874 41.8006 23.9817V23.959C41.7832 23.9643 41.7654 23.9696 41.7484 23.9753L41.7457 24.1775H41.7461ZM48.0789 22.6274V22.4286H48.2239C48.4454 21.5748 48.9384 21.1087 49.4753 21.002V21.3601H49.9399V20.9974C50.5282 21.1008 51.0916 21.6157 51.3396 22.5055H51.4771V22.6331H48.1028C48.227 22.7232 48.294 22.8606 48.2932 22.9981C48.2917 22.8572 48.222 22.7175 48.0944 22.6274H48.0789ZM48.0801 23.9723V23.9954C48.0937 23.9999 48.1073 24.0048 48.1206 24.0097V23.9863C48.1073 23.9813 48.0937 23.9768 48.0801 23.9723ZM46.5766 24.1775L46.5788 23.9988C46.5962 23.9927 46.6137 23.9874 46.6315 23.9817V23.959C46.6137 23.9643 46.5962 23.9696 46.5788 23.9753L46.5762 24.1775H46.5766ZM123.052 23.9666C122.835 24.1476 122.831 24.4785 123.107 24.6451V25.2319C123.094 25.2365 123.08 25.241 123.067 25.2456V25.43C123.08 25.4246 123.093 25.4197 123.107 25.4148V49.6292L116.488 49.6296V25.4739C116.507 25.4796 116.525 25.4856 116.543 25.4917L116.54 25.2974C116.523 25.2918 116.505 25.2865 116.488 25.2815V24.7091C116.829 24.5478 116.814 24.168 116.502 24.0105L123.052 23.9666ZM95.6566 22.6584H92.4114C92.667 21.802 93.219 21.3056 93.7956 21.2045V21.5672H94.2602V21.2087C94.7967 21.3158 95.2901 21.7815 95.5116 22.6357H95.6566V22.6584ZM90.7973 22.6584H87.5522C87.8077 21.802 88.3598 21.3056 88.9364 21.2045V21.5672H89.401V21.2087C89.9379 21.3158 90.4308 21.7815 90.6523 22.6357H90.7973V22.6584ZM85.9385 22.6584H82.6933C82.9485 21.802 83.5009 21.3056 84.0772 21.2045V21.5672H84.5417V21.2087C85.0786 21.3158 85.5716 21.7815 85.7935 22.6357H85.9385V22.6584ZM81.1122 22.6584H77.8681C78.1252 21.8088 78.6773 21.3052 79.2513 21.2045V21.5672H79.7158V21.2087C80.2527 21.3158 80.7457 21.7815 80.9672 22.6357H81.1122V22.6584ZM77.6921 22.7251V22.7285H77.0401L77.0303 22C76.961 20.467 76.6073 19.9225 76.3991 21.6752V21.9569H76.4055C76.7811 22.1185 76.8069 22.5358 76.4101 22.7111V22.7285H77.0401L77.6921 22.7251ZM76.3275 21.9569H74.7434C74.4715 22.1269 74.4306 22.4718 74.6968 22.6702H72.9896V22.3684C73.3864 22.1927 73.3607 21.7732 72.9851 21.6104H72.9775L72.9786 21.5911H73.0267V21.1644C73.1638 20.4397 73.5587 20.0319 73.9884 19.9471V20.4454H74.3557V19.9524C74.8888 20.0724 75.3806 20.6858 75.4154 21.8043L75.5464 21.8115V21.9534L76.3275 21.9569ZM72.9775 21.6104H71.3229C71.0314 21.7937 71.0052 22.1795 71.3396 22.3684V22.6702H68.1845L68.1875 22.8633H68.1872L68.1841 22.663C68.1648 22.6569 68.1451 22.6512 68.1247 22.6459V22.0246C68.5135 21.8501 68.4969 21.4385 68.1429 21.267L68.1573 21.2678C68.2727 20.1963 68.9062 19.6261 69.5718 19.5765V20.052H70.0617V19.6344C70.6338 19.8165 71.1393 20.4019 71.251 21.4044C71.251 21.4044 71.4263 21.3999 71.6281 21.3991L71.6273 21.5911H72.9775V21.6104ZM66.4277 21.2776C66.1653 21.4699 66.1528 21.8399 66.475 22.0246V22.6596C66.4591 22.6645 66.444 22.6694 66.4288 22.6743V22.6702H62.7509C62.7361 22.6649 62.7214 22.6603 62.7059 22.6558V22.0208C63.0288 21.8357 63.0156 21.4646 62.7513 21.2727V21.2439H66.4277V21.2776ZM61.0301 21.2674C60.684 21.4412 60.6704 21.8474 61.0562 22.0208V22.6418C61.0357 22.6475 61.0161 22.6531 60.9968 22.6592L60.9933 22.8701L60.9964 22.6702H57.7978V22.3718C58.1317 22.1829 58.106 21.7971 57.8144 21.6142H56.2019V21.5911H57.5517L57.5513 21.3991C57.7527 21.3999 57.9284 21.4044 57.9284 21.4044C58.0469 20.339 58.6099 19.7446 59.2256 19.6049V20.052H59.7151V19.5893C60.3402 19.6897 60.9127 20.2542 61.0221 21.2678L61.0301 21.2674ZM56.2015 21.6142H56.1519C55.7767 21.7766 55.7509 22.1961 56.1477 22.3718V22.6702H54.4735C54.7514 22.4744 54.7128 22.1242 54.4375 21.9534H53.6326V21.8115L53.7639 21.8043C53.7991 20.6654 54.3084 20.0497 54.8525 19.946V20.4106H55.2197V19.9532C55.6385 20.0505 56.0182 20.4564 56.1523 21.1644V21.5911H56.2004L56.2015 21.6142ZM62.961 18.6352H66.4069V20.8918H62.961V18.6352ZM27.4016 19.9172H28.4076V22.2457H27.4016V19.9172ZM32.2631 19.907H33.2691V22.2355H32.2631V19.907ZM37.1557 19.907H38.1613V22.2355H37.1557V19.907ZM42.0479 19.907H43.0535V22.2355H42.0479V19.907ZM46.9067 19.907H47.9127V22.2355H46.9067V19.907ZM86.1778 20.0914H87.1838V22.4199H86.1778V20.0914ZM91.0699 20.0914H92.0759V22.4199H91.0699V20.0914ZM95.9621 20.0914H96.9681V22.4199H95.9621V20.0914ZM100.821 20.0914H101.827V22.4199H100.821V20.0914ZM81.3189 20.0914H82.3245V22.4199H81.3189V20.0914ZM56.3287 18.6875L57.3737 18.611L57.3836 21.3223H56.3287V18.6875ZM52.9287 19.3088L53.5243 19.1331L53.5299 21.6801L52.9287 21.7157V19.3088ZM61.3246 18.4031L62.4749 18.3811L62.4855 21.0379H61.3246V18.4031ZM72.9097 18.6659L71.8643 18.5894L71.8549 21.3007H72.9097V18.6659ZM76.3097 19.2872L75.7142 19.1111L75.7085 21.6585L76.3097 21.6941V19.2872ZM67.9138 18.3815L66.7635 18.3596L66.7529 21.0164H67.9138V18.3815ZM105.077 21.2526H104.118V23.5811H105.077V21.2526ZM103.918 21.1636V21.0368H101.969V21.1636H103.918ZM23.9096 21.1027H24.9152V23.4312H23.9096V21.1027ZM111.627 37.6814V38.0695H111.35V37.6814H108.956V38.0786H108.679V37.6814H108.504V37.4701H111.784V37.6814H111.627ZM107.735 37.7087V38.0968H107.458V37.7087H105.222V37.4974H107.891V37.7087H107.735ZM17.3511 37.5966V37.9847H17.6282V37.5966H20.0223V37.9938H20.2994V37.5966H20.4743V37.3853H17.1943V37.5966H17.3511ZM21.2433 37.6242V38.0123H21.5201V37.6242H23.7559V37.4126H21.0866V37.6242H21.2433ZM18.9212 32.7964C19.4138 32.7964 19.8167 33.1997 19.8167 33.6922V37.2021H18.0254V33.6922C18.0254 33.1997 18.4287 32.7964 18.9212 32.7964ZM1.74467 29.0776H4.26213V29.5153H1.74467C1.52318 29.5153 1.34182 29.4168 1.34182 29.2964C1.34182 29.176 1.52318 29.0776 1.74467 29.0776ZM19.7792 28.621L19.7709 26.8627C19.6062 25.854 18.2901 25.8434 18.111 26.8464L18.1091 28.613L19.7792 28.621ZM17.3556 28.922V29.3101H17.6328V28.922H20.0268V29.3192H20.304V28.922H20.4789V28.7107H17.1993V28.922H17.3556ZM21.2479 28.9492V29.3373H21.525V28.9492H23.7608V28.738H21.0911V28.9492H21.2479ZM20.5622 24.9184H17.1898V25.1263H20.5622V24.9184ZM20.2782 25.2191H17.4904V25.6454H20.2782V25.2191ZM23.7154 25.23H21.3603V25.6564H23.7676V25.2547C23.749 25.2607 23.7313 25.2668 23.715 25.2732L23.7154 25.23ZM108.417 25.0612H111.789V25.2687H108.417V25.0612ZM108.701 25.3618H111.489V25.7881H108.701V25.3618ZM111.616 28.9527V29.3407H111.339V28.9527H108.945V29.3498H108.668V28.9527H108.493V28.7414H111.773V28.9527H111.616ZM23.7653 29.5429H17.0914V29.8928H23.7653V29.5429ZM23.7684 30.625H17.0944V30.9749H23.7684V30.625ZM23.7684 31.2679H17.6161V31.0411H23.7684V31.2679ZM6.98026 28.4548H11.2984V28.6736H6.98026V28.4548ZM6.93671 30.4774H11.2549V30.6962H6.93671V30.4774ZM6.92573 30.1385H11.2439V30.3573H6.92573V30.1385ZM6.98518 39.9804H11.3037V40.1992H6.98518V39.9804ZM6.99086 39.6415H11.3094V39.8604H6.99086V39.6415ZM6.93066 38.2777H11.2492V38.4966H6.93066V38.2777ZM6.93671 37.9279H11.2549V38.1467H6.93671V37.9279ZM117.626 30.7284H121.945V30.9469H117.626V30.7284ZM117.616 30.3895H121.934V30.608H117.616V30.3895ZM117.675 40.2314H121.994V40.4499H117.675V40.2314ZM117.681 39.8926H121.999V40.111H117.681V39.8926ZM117.621 38.5288H121.939V38.7472H117.621V38.5288ZM117.626 38.1789H121.945V38.3974H117.626V38.1789ZM112.7 29.3116H115.02V29.7489H112.7C112.495 29.7489 112.328 29.6505 112.328 29.5304C112.328 29.41 112.495 29.3116 112.7 29.3116ZM112.048 38.5481H113.291V38.5795C113.321 38.4939 113.413 38.4315 113.521 38.4315H115.025V38.8502H113.521C113.413 38.8502 113.321 38.7877 113.291 38.7025V38.9664H112.048C111.939 38.9664 111.849 38.8725 111.849 38.7574C111.849 38.642 111.939 38.5481 112.048 38.5481ZM113.517 40.6487V41.0822H112.225V40.6487H112.13V40.4052C112.089 40.4052 112.055 40.3109 112.055 40.1958C112.055 40.0807 112.089 39.9865 112.13 39.9865H113.517V40.4052V40.6487ZM115.031 40.5377V40.9713H113.74V40.5377H113.644V40.2943C113.603 40.2943 113.57 40.2 113.57 40.0849C113.57 39.9698 113.603 39.8755 113.644 39.8755H115.031V40.2943V40.5377ZM127.08 29.2378H124.562V29.6754H127.08C127.302 29.6754 127.483 29.577 127.483 29.4566C127.483 29.3362 127.302 29.2378 127.08 29.2378ZM59.7056 43.14H60.3069C60.5534 43.14 60.7552 43.3418 60.7552 43.5883C60.7552 43.8348 60.5534 44.0366 60.3069 44.0366H59.7056C59.4592 44.0366 59.2574 43.8348 59.2574 43.5883C59.2574 43.3418 59.4592 43.14 59.7056 43.14ZM68.9713 43.162H69.5725C69.819 43.162 70.0208 43.3638 70.0208 43.6102C70.0208 43.8567 69.819 44.0585 69.5725 44.0585H68.9713C68.7248 44.0585 68.523 43.8567 68.523 43.6102C68.523 43.3638 68.7248 43.162 68.9713 43.162ZM63.4317 42.7356H65.8526C65.8526 42.9537 66.0309 43.1324 66.249 43.1324V44.0555C66.0309 44.0555 65.8526 44.2338 65.8526 44.4519H63.4317C63.4317 44.2338 63.2533 44.0555 63.0349 44.0555V43.1324C63.2533 43.1324 63.4317 42.9537 63.4317 42.7356ZM71.3396 38.0472V23.1912C71.3233 23.1965 71.3078 23.2018 71.2934 23.2074V23.1696H68.1247V23.6837H70.627V24.2377H68.1247V24.3104H70.8091V24.5947H68.1247V24.8098H70.8091V25.0248H68.1247V28.0292H70.9356V28.2405H70.7788V28.6289H70.5017V28.2405H68.1247V30.0238H71.2165V30.2422H68.1247V30.3543H71.2165V30.4634H68.1247V30.4864H70.7519V30.5959H68.1247V31.3838H70.8485V31.6681H68.1247V31.784H70.8485V31.999H68.1247V37.0589H70.9356V37.2702H70.7788V37.6583H70.5017V37.2702H68.1247V38.0472H71.3396ZM71.2934 23.0102C71.3085 23.0053 71.324 23.0003 71.3396 22.9958V22.9928C71.324 22.9977 71.3085 23.0026 71.2934 23.0075V23.0102ZM57.844 23.1696V23.2101C57.8292 23.2044 57.8137 23.1991 57.7978 23.1938V38.0472H61.0562V37.2581H58.8662V37.6553H58.5891V37.2581H58.4142V37.0468H61.0562V32.0206H58.4986V31.8056H61.0562V31.6897H58.4986V31.4054H61.0562V30.5959H58.4914V30.4864H61.0562V30.4634H58.0321V30.3543H61.0562V30.2422H58.0321V30.0238H61.0562V28.2405H58.8662V28.638H58.5891V28.2405H58.4142V28.0292H61.0562V24.9957H58.4888V24.7806H61.0562V24.5656H58.4888V24.2812H61.0562V24.2085H58.6527V23.6546H61.0562V23.1696H57.844ZM62.7059 23.1696V30.0238H66.475V23.1696H62.7059ZM62.7059 30.2422V30.3543H66.475V30.2422H62.7059ZM62.7059 30.4634V30.4864H66.475V30.4634H62.7059ZM62.7059 30.5959V38.0472H66.475V30.5959H62.7059ZM58.0215 41.1011H61.0456V41.32H58.0215V41.1011ZM58.0215 41.4317H61.0456V41.5411H58.0215V41.4317ZM58.4808 41.5638H61.0456V41.6732H58.4808V41.5638ZM63.0678 31.6852H66.2785V31.4012H63.0678V31.6852ZM63.0678 31.801H66.2785V32.0161H63.0678V31.801ZM17.8293 42.0261H19.9443V49.4274H17.8293V42.0261ZM21.6363 42.0424H23.7513V49.4437H21.6363V42.0424ZM22.7355 32.8218C23.2281 32.8218 23.6309 33.225 23.6309 33.7176V37.2274H21.8397V33.7176C21.8397 33.225 22.2429 32.8218 22.7355 32.8218ZM109.082 42.1798H111.197V49.5811H109.082V42.1798ZM109.223 28.6675L109.232 26.9293C109.394 25.9324 110.695 25.9218 110.872 26.913L110.874 28.6596L109.223 28.6675ZM105.435 28.7141L105.443 26.9762C105.606 25.979 106.907 25.9684 107.084 26.96L107.086 28.7062L105.435 28.7141ZM110.114 32.9592H110.115C110.607 32.9592 111.01 33.3625 111.01 33.855V37.3649H109.219V33.855C109.219 33.3625 109.622 32.9592 110.114 32.9592ZM106.309 32.9532C106.802 32.9532 107.205 33.3564 107.205 33.849V37.3588H105.414V33.849C105.414 33.3564 105.817 32.9532 106.309 32.9532ZM66.1434 37.282V37.67H65.8662V37.282H63.4722V37.6791H63.195V37.282H63.0201V37.0707H66.3001V37.282H66.1434ZM59.9518 32.286C60.475 32.286 60.9032 32.7139 60.9032 33.2371V36.9643H59.0007V33.2371C59.0007 32.7139 59.4289 32.286 59.9518 32.286ZM69.2882 32.2641C69.8115 32.2641 70.2393 32.6919 70.2393 33.2152V36.9427H68.3371V33.2152C68.3371 32.6919 68.7649 32.2641 69.2882 32.2641ZM64.6417 32.2641C65.165 32.2641 65.5928 32.6923 65.5928 33.2156V36.9427H63.6906V33.2156C63.6906 32.6923 64.1189 32.2641 64.6417 32.2641ZM9.17323 25.8351C10.4359 25.8351 11.4692 26.868 11.4692 28.1307V28.1723H6.87765V28.1307C6.87765 26.868 7.91053 25.8351 9.17323 25.8351ZM11.4692 31.2774V37.4857H6.87765V31.2774H11.4692ZM11.4692 40.5907V49.4013H6.87765V40.5907H11.4692ZM119.721 25.9918C120.984 25.9918 122.017 27.0251 122.017 28.2878V28.3294H121.88H117.562H117.425V28.2878C117.425 27.0251 118.458 25.9918 119.721 25.9918ZM122.017 31.4341V37.6428H117.425V31.4341H122.017ZM122.017 40.7475V49.5584H117.425V40.7475H122.017ZM82.5892 32.966C83.1901 33.3602 83.5888 34.0394 83.5888 34.8077V36.9794H82.5892V37.8302H85.971V30.1158H82.5892V32.966ZM83.5888 40.5945V49.282H82.5892V49.6315H85.971V38.3005H82.5892V39.4613H83.5376V39.6536H82.5892V39.891H83.5376V40.0834H82.5892V40.5945H83.5888ZM92.2789 32.9422C92.8604 33.3394 93.2444 34.0076 93.2444 34.7611V36.9329H92.2789V37.8302H95.6782V30.1158H92.2789V32.9422ZM90.8303 36.9329H88.8421V34.7611C88.8421 33.6222 89.7186 32.6783 90.8303 32.5704V30.1158H87.4196V37.8302H90.8303V36.9329ZM93.2444 40.548V49.2354H92.2789V49.6311L95.6782 49.6307V38.3005H92.2789V39.4613H93.241V39.6536H92.2789V39.891H93.241V40.0834H92.2789V40.548H93.2444ZM90.8303 49.2354H88.8421V40.548H90.8303V40.0834H88.7891V39.891H90.8303V39.6536H88.7891V39.4613H90.8303V38.3005H87.4196V49.6315L90.8303 49.6311V49.2354ZM63.2533 23.6546H66.1176V24.2085H63.2533V23.6546ZM63.0894 24.5656H66.2997V24.2812H63.0894V24.5656ZM63.0894 24.7806H66.2997V24.9957H63.0894V24.7806ZM66.1362 28.2318V28.6198H65.8594V28.2318H63.465V28.6289H63.1882V28.2318H63.0133V28.0201H66.2929V28.2318H66.1362ZM73.2452 39.4314H74.757V39.7286V39.9016V40.1178V40.5767H73.542V40.1178H73.3777V39.9016H73.2463V39.7286H73.2452C73.1721 39.7286 73.1119 39.6616 73.1119 39.5798C73.1119 39.498 73.1721 39.4314 73.2452 39.4314ZM55.707 28.6914H54.4277V29.1813H55.707C55.8274 29.1813 55.9262 29.0712 55.9262 28.9364C55.9262 28.8016 55.8274 28.6914 55.707 28.6914ZM55.7703 29.7955H54.4277V30.0927V30.2657H55.7703V30.0927C55.8437 30.0927 55.9035 30.0257 55.9035 29.9439C55.9035 29.8621 55.8437 29.7955 55.7703 29.7955ZM55.7661 37.8052H54.4231V38.1028V38.2755H55.7661V38.1028C55.8392 38.1028 55.8994 38.0358 55.8994 37.954C55.8994 37.8722 55.8392 37.8052 55.7661 37.8052ZM55.9425 39.3186H54.4307V39.6158V39.7888V40.005V40.4643H55.6457V40.005H55.8104V39.7888H55.9414V39.6158H55.9425C56.016 39.6158 56.0758 39.5491 56.0758 39.4674C56.0758 39.3856 56.016 39.3186 55.9425 39.3186ZM95.6782 28.5415H92.2789V28.1182H95.1231V28.0087H95.1784C95.2306 28.0087 95.2734 27.9663 95.2734 27.9148V27.9145C95.2734 27.863 95.2306 27.8206 95.1784 27.8206H92.2789V24.6943H94.8925V24.3861H95.0845V24.2131C95.1663 24.2131 95.2333 24.1464 95.2333 24.0646C95.2333 23.9829 95.1663 23.9158 95.0845 23.9158H92.2789V23.5804C92.6219 23.4115 92.6053 23.0125 92.2902 22.8485C92.4243 22.9182 92.5042 23.0299 92.5254 23.1484H95.4692C95.4866 23.0299 95.5532 22.9174 95.6634 22.8409C95.4074 23.0196 95.3847 23.3964 95.6782 23.5804V24.1922C95.6641 24.1968 95.6509 24.2017 95.6376 24.2066V24.3986C95.6501 24.3933 95.6638 24.388 95.6782 24.3831V28.5415ZM92.2789 29.0314H95.6782V29.6455H92.2789V29.0314ZM90.8303 28.5415H87.4196V28.1182H90.8303V28.5415ZM87.4196 29.0314H90.8303V29.6455H87.4196V29.0314ZM85.971 28.5415H82.5892V28.1182H85.971V28.5415ZM82.5892 29.0314H85.971V29.6455H82.5892V29.0314ZM92.2789 24.1725C92.2967 24.1778 92.3141 24.1835 92.3311 24.1892L92.3315 24.2131L92.3338 24.3861V24.3914L92.3311 24.1953C92.3141 24.1896 92.2967 24.1843 92.2789 24.179V24.1725ZM90.8303 23.9158H87.4196V23.5804C87.7627 23.4115 87.7464 23.0125 87.4314 22.8485C87.5654 22.9182 87.6453 23.0299 87.6665 23.1484H90.6217C90.6387 23.0299 90.7057 22.9174 90.8155 22.8409C90.5596 23.0196 90.5368 23.3964 90.8303 23.5804V23.9158ZM87.4196 24.1725C87.4374 24.1778 87.4549 24.1835 87.4719 24.1892L87.4723 24.2131L87.4745 24.3861L87.4749 24.3914H87.4745L87.4719 24.1953C87.4549 24.1896 87.4374 24.1843 87.4196 24.179V24.1725ZM90.7898 24.2066V24.2002C90.803 24.1953 90.8166 24.1903 90.8303 24.1858V24.1922C90.8166 24.1968 90.803 24.2017 90.7898 24.2066ZM85.971 23.9158H82.5892V23.5804C82.9322 23.4115 82.9156 23.0125 82.6009 22.8485C82.7346 22.9182 82.8148 23.0299 82.836 23.1484H85.7624C85.7798 23.0299 85.8465 22.9174 85.9567 22.8409C85.7003 23.0196 85.6776 23.3964 85.971 23.5804V23.9158ZM82.5892 24.1725C82.607 24.1778 82.6244 24.1835 82.6414 24.1892L82.6418 24.2131L82.6441 24.3861V24.3914L82.6414 24.1953C82.6244 24.1896 82.607 24.1843 82.5892 24.179V24.1725ZM85.9305 24.2066V24.2002C85.9438 24.1953 85.9574 24.1903 85.971 24.1858V24.1922C85.9574 24.1968 85.9438 24.2017 85.9305 24.2066ZM81.1406 23.9158H77.7273V24.0548L77.7262 24.0544V23.4615C77.8992 23.3771 77.9806 23.2347 77.9787 23.0935C77.9798 23.1116 77.9798 23.1298 77.9787 23.1484H80.932C80.949 23.0299 81.016 22.9174 81.1258 22.8409C80.8699 23.0196 80.8471 23.3964 81.1406 23.5804V23.9158ZM77.7788 24.0923L77.7796 24.0927L77.7811 24.2131L77.7822 24.2941C77.7652 24.2873 77.7466 24.2812 77.7273 24.2752V24.3861V24.6943H81.1406V27.8206H77.7262V24.2536C77.7459 24.2593 77.764 24.2657 77.7814 24.2721L77.7788 24.0923ZM81.1001 24.2066V24.2002C81.1133 24.1953 81.1269 24.1903 81.1406 24.1858V24.1922C81.1269 24.1968 81.1133 24.2017 81.1001 24.2066ZM87.4196 24.6943H90.8303V27.8206H87.4196V24.6943ZM82.5892 24.6943H85.971V27.8206H82.5892V24.6943ZM77.9969 27.7218L78.0056 25.8502C78.1805 24.7764 79.5818 24.7651 79.7722 25.8328L79.7741 27.713L77.9969 27.7218ZM82.8069 27.7081L82.8156 25.8366C82.9909 24.7628 84.3918 24.7515 84.5823 25.8192L84.5845 27.6994L82.8069 27.7081ZM87.6173 27.6945L87.626 25.823C87.8009 24.7492 89.2022 24.7378 89.3926 25.8055L89.3949 27.6858L87.6173 27.6945ZM92.4958 27.7195L92.5045 25.8479C92.6798 24.7746 94.0807 24.7628 94.2712 25.8305L94.2735 27.7108L92.4958 27.7195ZM70.1208 27.9167L70.1121 26.1065C69.9428 25.0684 68.5877 25.0574 68.4037 26.0899L68.4015 27.9084L70.1208 27.9167ZM65.5145 27.9315L65.5061 26.1213C65.3365 25.0831 63.9814 25.0718 63.7974 26.1043L63.7951 27.9232L65.5145 27.9315ZM60.8904 27.9603L60.882 26.1501C60.7128 25.1115 59.3577 25.1005 59.1733 26.1331L59.171 27.952L60.8904 27.9603ZM103.33 29.3267H102.002V29.8163H103.33C103.455 29.8163 103.557 29.7061 103.557 29.5713C103.557 29.4369 103.455 29.3267 103.33 29.3267ZM103.396 30.4304H102.002V30.728V30.9007H103.396V30.728C103.472 30.728 103.534 30.661 103.534 30.5792C103.534 30.4974 103.472 30.4304 103.396 30.4304ZM103.391 38.4405H101.997V38.7378V38.9108H103.391V38.7378C103.467 38.7378 103.529 38.6707 103.529 38.589C103.529 38.5076 103.467 38.4405 103.391 38.4405ZM103.574 39.9535H102.005V40.2511V40.4241V40.6403V41.0992H103.266V40.6403H103.437V40.4241H103.573V40.2511H103.574C103.65 40.2511 103.713 40.1841 103.713 40.1023C103.713 40.0205 103.65 39.9535 103.574 39.9535ZM30.3893 39.3356H32.0768V39.6332V39.8059V40.022V40.4813H30.7206V40.022H30.5374V39.8059H30.3908V39.6332H30.3893C30.3075 39.6332 30.2409 39.5662 30.2409 39.4844C30.2409 39.4026 30.3075 39.3356 30.3893 39.3356ZM25.7898 29.0935H27.218V29.5831H25.7898C25.655 29.5831 25.5449 29.4729 25.5449 29.3381C25.5449 29.2037 25.655 29.0935 25.7898 29.0935ZM25.719 30.1972H27.218V30.4948V30.6674H25.719V30.4948C25.6372 30.4948 25.5702 30.4278 25.5702 30.346C25.5702 30.2642 25.6372 30.1972 25.719 30.1972ZM25.7239 38.2073H27.2225V38.5045V38.6776H25.7239V38.5045C25.6422 38.5045 25.5751 38.4375 25.5751 38.3557C25.5751 38.2739 25.6422 38.2073 25.7239 38.2073ZM25.5267 39.7203H27.2142V40.0179V40.1909V40.4071V40.866H25.858V40.4071H25.6743V40.1909H25.5282V40.0179H25.5267C25.4449 40.0179 25.3779 39.9509 25.3779 39.8691C25.3779 39.7873 25.4449 39.7203 25.5267 39.7203ZM23.679 28.6509L23.6707 26.8926C23.5064 25.8839 22.1899 25.8733 22.0112 26.8759L22.0089 28.6426L23.679 28.6509ZM51.1586 27.5798L51.1499 25.7082C50.9746 24.6348 49.5737 24.6235 49.3833 25.6908L49.381 27.5714L51.1586 27.5798ZM46.3482 27.5661L46.3395 25.6946C46.1646 24.6212 44.7633 24.6095 44.5729 25.6772L44.5706 27.5578L46.3482 27.5661ZM41.5382 27.5525L41.5295 25.681C41.3542 24.6076 39.9533 24.5962 39.7629 25.6636L39.7606 27.5442L41.5382 27.5525ZM36.6593 27.5779L36.6506 25.706C36.4753 24.6326 35.0744 24.6212 34.8839 25.6885L34.8817 27.5692L36.6593 27.5779ZM27.0374 18.5606V18.2982H22.8165L22.5681 17.8257H27.0374V17.6144L51.5952 17.6175C55.2777 15.0822 73.9971 15.0826 77.7087 17.6175L102.267 17.6144V17.9756H106.356L106.122 18.4478H102.267V18.7102H105.689V19.024L77.7277 19.0547C72.3221 16.7247 56.9822 16.7247 51.5766 19.0547L23.2674 18.8741V18.5606H27.0374ZM76.4101 23.2888C76.4301 23.2938 76.4498 23.2994 76.4695 23.3051L76.4725 23.5073H76.4722L76.4695 23.3381C76.4498 23.332 76.4301 23.3263 76.4101 23.321V23.2888ZM51.2609 17.4884H26.6039L26.2173 17.0753L51.2616 17.1268C53.2986 16.2408 55.9758 15.6785 59.778 15.4052C62.8823 15.1818 65.7712 15.1621 68.8725 15.3507C73.0392 15.6043 75.9133 16.1798 78.0696 17.1181L103.114 17.0662L102.728 17.4796H78.0703C75.8001 16.3173 72.2411 15.8444 68.8501 15.6668C65.8954 15.5123 62.7592 15.526 59.8101 15.7149C56.6275 15.9186 53.3819 16.4028 51.2609 17.4884ZM50.8667 16.8871H50.8557H25.9261L25.7364 16.496L50.8561 16.5263C53.1237 15.61 56.4162 15.0091 60.7344 14.724C63.5998 14.5347 66.11 14.5843 68.9641 14.7899C73.0748 15.0856 76.2264 15.6766 78.419 16.5626L103.539 16.5323L103.349 16.9238H78.4198H78.4088C76.0072 15.8856 72.3149 15.3976 68.9758 15.1757C66.1778 14.9894 63.5456 14.9425 60.7442 15.111C57.2923 15.3188 53.3755 15.8027 50.8667 16.8871ZM51.5687 19.4303L51.5694 19.4697H51.4869H27.1555V20.0471H23.6037V19.024H27.1555V19.1914L51.4869 19.2126C56.3813 16.9961 72.9275 17.0798 77.7262 19.2122V19.2103C77.7606 19.2251 77.7966 19.2399 77.8303 19.255L102.033 19.2334V19.1736H105.438V20.197H102.033V19.5117H77.8303H77.7474L77.7481 19.4784C73.2179 17.4138 56.2117 17.1802 51.5687 19.4303Z" fill="url(#paint0_linear_1_3)"/>
<path fill-rule="evenodd" clip-rule="evenodd" d="M69.145 1.18751L69.4854 1.96823C68.2186 3.96735 66.3917 1.18713 65.3005 0.884991C64.8802 0.768754 64.6213 0.972831 64.5266 1.57635C64.5266 1.57635 64.5274 1.32154 64.5285 0.811538C64.6004 0.469642 64.792 0.270108 65.02 0.160308C65.2206 0.0637594 65.3342 0.133426 65.5231 0.215208C66.7556 0.747929 68.317 2.86859 69.145 1.18751Z" fill="#FF0000"/>
<path fill-rule="evenodd" clip-rule="evenodd" d="M69.4855 1.96825C69.6873 2.45099 69.7884 2.69218 69.7884 2.69218C68.7775 3.94617 67.5019 3.82274 65.9613 2.32226C65.2328 1.55555 64.7535 1.68996 64.524 2.66075C64.524 2.66075 64.5252 2.24389 64.5267 1.57638C64.5808 1.05691 64.7588 0.863432 65.0568 0.827085C65.8632 0.727886 66.9063 2.41275 68.23 2.66908C68.7283 2.76525 69.1448 2.47901 69.4855 1.96825Z" fill="white"/>
<path fill-rule="evenodd" clip-rule="evenodd" d="M69.7884 2.69216C69.9985 3.19459 70.1037 3.44561 70.1037 3.44561C67.8714 6.7135 65.1377 1.41847 64.5403 3.64098C64.541 3.32748 64.5217 3.50354 64.524 2.66073C65.3282 -0.259581 67.1335 5.66207 69.7884 2.69216Z" fill="#009933"/>
<path d="M67.205 2.67586C67.2217 2.66488 67.244 2.6698 67.2546 2.68646C67.2614 2.69668 67.2622 2.70994 67.2569 2.72092L67.1925 2.84889L67.2164 2.86101L67.2811 2.73303C67.2906 2.71562 67.3121 2.70918 67.3296 2.71864C67.3405 2.7247 67.3477 2.73568 67.3485 2.74818C67.3814 2.71524 67.3814 2.66147 67.3485 2.62853C67.3156 2.59559 67.2622 2.59521 67.2289 2.62815C67.216 2.64103 67.2076 2.65769 67.205 2.67586Z" fill="#F7C300"/>
<path d="M67.2391 2.65091C67.263 2.65734 67.2796 2.67855 67.2812 2.70316C67.302 2.68953 67.3289 2.69066 67.3482 2.70618C67.3592 2.674 67.3421 2.63879 67.3099 2.62781C67.2838 2.61872 67.2547 2.62819 67.2391 2.65091Z" fill="white"/>
<path d="M67.2183 2.79781C67.1865 2.84892 67.1195 2.86444 67.0683 2.83264C67.0475 2.81977 67.0316 2.80046 67.0233 2.77774C66.9767 2.81901 66.9052 2.81484 66.8635 2.7679C66.8574 2.76108 66.8521 2.75351 66.848 2.74518C66.8101 2.84324 66.9597 2.89473 67.0157 2.80917C67.0206 2.90836 67.1285 2.93525 67.2043 2.85498L67.2183 2.79781Z" fill="#F7C300"/>
<path d="M67.2425 2.80988C67.2202 2.86591 67.2474 2.92914 67.3035 2.95148C67.3262 2.96057 67.3512 2.9617 67.3743 2.95451C67.369 3.01698 67.4148 3.07188 67.4773 3.07756C67.4864 3.07832 67.4958 3.07794 67.5049 3.07643C67.4485 3.16502 67.3182 3.07567 67.3535 2.9795C67.2709 3.0344 67.1854 2.9636 67.2047 2.85493L67.2425 2.80988Z" fill="#F7C300"/>
<path d="M67.0415 2.91629C67.0006 2.94848 66.9582 2.93636 66.9412 2.88487C66.9412 2.88487 66.9597 2.88222 66.9756 2.88714C66.979 2.87389 66.9927 2.86063 67.0051 2.85571C67.0104 2.86556 67.0165 2.88297 67.0127 2.89774C67.0347 2.90531 67.0415 2.91629 67.0415 2.91629Z" fill="#F7C300"/>
<path d="M67.1963 2.98861C67.1509 3.0136 67.1107 2.99467 67.1024 2.94128C67.1024 2.94128 67.1213 2.94166 67.1365 2.94885C67.1414 2.93636 67.1573 2.92538 67.1702 2.92273C67.174 2.93371 67.177 2.9515 67.1709 2.96551C67.1914 2.97687 67.1963 2.98861 67.1963 2.98861Z" fill="#F7C300"/>
<path d="M67.3375 3.08516C67.2887 3.10257 67.2523 3.07721 67.2527 3.02306C67.2527 3.02306 67.2712 3.02647 67.2849 3.03594C67.2921 3.02458 67.3091 3.01663 67.3224 3.01587C67.3246 3.02723 67.3246 3.0454 67.3163 3.05827C67.3345 3.07266 67.3375 3.08516 67.3375 3.08516Z" fill="#F7C300"/>
<path d="M67.4391 2.39001L67.4182 2.5248L67.3558 2.40365L67.4777 2.46498L67.3429 2.48694L67.4391 2.39001Z" fill="#F7C300"/>
<path d="M67.2357 2.3476L67.2149 2.48238L67.1524 2.36123L67.2743 2.42256L67.1395 2.44452L67.2357 2.3476Z" fill="#F7C300"/>
<path d="M67.0384 2.41272L67.0176 2.54751L66.9551 2.42635L67.0767 2.48769L66.9423 2.50965L67.0384 2.41272Z" fill="#F7C300"/>
<path d="M66.8999 2.56799L66.8791 2.7024L66.8166 2.58124L66.9385 2.64258L66.8037 2.66454L66.8999 2.56799Z" fill="#F7C300"/>
<path d="M67.5938 2.52856L67.498 2.62549L67.6325 2.60353L67.5109 2.54219L67.5734 2.66335L67.5938 2.52856Z" fill="#F7C300"/>
<path d="M67.659 2.72583L67.5632 2.82276L67.6976 2.8008L67.5757 2.73946L67.6382 2.86062L67.659 2.72583Z" fill="#F7C300"/>
<path d="M67.6165 2.92957L67.5208 3.02611L67.6552 3.00415L67.5336 2.94282L67.5957 3.06398L67.6165 2.92957Z" fill="#F7C300"/>
<path fill-rule="evenodd" clip-rule="evenodd" d="M66.8434 2.96403C67.0297 2.99811 67.1921 3.08216 67.3314 3.20976C67.3314 3.20976 67.339 3.20181 67.3545 3.1859C67.1947 3.04013 67.0297 2.96252 66.8494 2.93109C66.8453 2.95305 66.8434 2.96403 66.8434 2.96403Z" fill="#F7C300"/>
<path fill-rule="evenodd" clip-rule="evenodd" d="M67.4815 3.10108C67.4065 3.14462 67.3686 3.16734 67.3315 3.20975C67.3205 3.1999 67.3145 3.1946 67.3137 3.19384C67.3592 3.14841 67.4125 3.1132 67.4633 3.08594C67.4837 3.1026 67.4815 3.10108 67.4815 3.10108Z" fill="#F7C300"/>
<path fill-rule="evenodd" clip-rule="evenodd" d="M66.842 2.77884C66.8518 2.86479 66.856 2.90871 66.8439 2.96399C66.8586 2.96701 66.8662 2.96853 66.867 2.96853C66.8768 2.9053 66.873 2.84131 66.8651 2.78414C66.8397 2.77808 66.842 2.77884 66.842 2.77884Z" fill="#F7C300"/>
<defs>
<linearGradient id="paint0_linear_1_3" x1="-2.53565" y1="21.6301" x2="126.539" y2="37.7549" gradientUnits="userSpaceOnUse">
<stop stop-color="#774600"/>
<stop offset="0.34902" stop-color="#B78101"/>
<stop offset="1" stop-color="#F7BD02"/>
</linearGradient>
</defs>
</svg>
